<?xml version="1.0" encoding="UTF-8" standalone="no"?>
<!-- Created with matplotlib (http://matplotlib.org/) -->

<svg
   xmlns:dc="http://purl.org/dc/elements/1.1/"
   xmlns:cc="http://creativecommons.org/ns#"
   xmlns:rdf="http://www.w3.org/1999/02/22-rdf-syntax-ns#"
   xmlns:svg="http://www.w3.org/2000/svg"
   xmlns="http://www.w3.org/2000/svg"
   xmlns:xlink="http://www.w3.org/1999/xlink"
   xmlns:sodipodi="http://sodipodi.sourceforge.net/DTD/sodipodi-0.dtd"
   xmlns:inkscape="http://www.inkscape.org/namespaces/inkscape"
   height="288pt"
   version="1.1"
   viewBox="0 0 432 288"
   width="432pt"
   id="svg3360"
   sodipodi:docname="weeks.svg"
   inkscape:export-filename="/home/pivarski/talks/jupyter-talks/uproot-stats/weeks.png"
   inkscape:export-xdpi="125"
   inkscape:export-ydpi="125"
   inkscape:version="0.92.3 (2405546, 2018-03-11)">
  <metadata
     id="metadata3364">
    <rdf:RDF>
      <cc:Work
         rdf:about="">
        <dc:format>image/svg+xml</dc:format>
        <dc:type
           rdf:resource="http://purl.org/dc/dcmitype/StillImage" />
        <dc:title></dc:title>
      </cc:Work>
    </rdf:RDF>
  </metadata>
  <sodipodi:namedview
     pagecolor="#ffffff"
     bordercolor="#666666"
     borderopacity="1"
     objecttolerance="10"
     gridtolerance="10"
     guidetolerance="10"
     inkscape:pageopacity="1"
     inkscape:pageshadow="2"
     inkscape:window-width="1914"
     inkscape:window-height="987"
     id="namedview3362"
     showgrid="false"
     inkscape:zoom="1.0347222"
     inkscape:cx="-193.2886"
     inkscape:cy="192"
     inkscape:window-x="0"
     inkscape:window-y="0"
     inkscape:window-maximized="0"
     inkscape:current-layer="svg3360" />
  <defs
     id="defs2806">
    <style
       type="text/css"
       id="style2804">
*{stroke-linecap:butt;stroke-linejoin:round;}
  </style>
  </defs>
  <g
     id="figure_1">
    <g
       id="patch_1">
      <path
         d="M 0 288  L 432 288  L 432 0  L 0 0  z "
         style="fill:#ffffff;"
         id="path2808" />
    </g>
    <g
       id="axes_1">
      <g
         id="patch_2">
        <path
           d="M 54 252  L 388.8 252  L 388.8 34.56  L 54 34.56  z "
           style="fill:#ffffff;"
           id="path2811" />
      </g>
      <g
         id="patch_3">
        <path
           clip-path="url(#pe3b91a0317)"
           d="M 54 252  L 59.873684 252  L 59.873684 248.954622  L 54 248.954622  z "
           style="fill:#1f77b4;"
           id="path2814" />
      </g>
      <g
         id="patch_4">
        <path
           clip-path="url(#pe3b91a0317)"
           d="M 59.873684 252  L 65.747368 252  L 65.747368 245.909244  L 59.873684 245.909244  z "
           style="fill:#1f77b4;"
           id="path2817" />
      </g>
      <g
         id="patch_5">
        <path
           clip-path="url(#pe3b91a0317)"
           d="M 65.747368 252  L 71.621053 252  L 71.621053 242.863866  L 65.747368 242.863866  z "
           style="fill:#1f77b4;"
           id="path2820" />
      </g>
      <g
         id="patch_6">
        <path
           clip-path="url(#pe3b91a0317)"
           d="M 71.621053 252  L 77.494737 252  L 77.494737 242.863866  L 71.621053 242.863866  z "
           style="fill:#1f77b4;"
           id="path2823" />
      </g>
      <g
         id="patch_7">
        <path
           clip-path="url(#pe3b91a0317)"
           d="M 77.494737 252  L 83.368421 252  L 83.368421 248.954622  L 77.494737 248.954622  z "
           style="fill:#1f77b4;"
           id="path2826" />
      </g>
      <g
         id="patch_8">
        <path
           clip-path="url(#pe3b91a0317)"
           d="M 83.368421 252  L 89.242105 252  L 89.242105 230.682353  L 83.368421 230.682353  z "
           style="fill:#1f77b4;"
           id="path2829" />
      </g>
      <g
         id="patch_9">
        <path
           clip-path="url(#pe3b91a0317)"
           d="M 89.242105 252  L 95.115789 252  L 95.115789 239.818487  L 89.242105 239.818487  z "
           style="fill:#1f77b4;"
           id="path2832" />
      </g>
      <g
         id="patch_10">
        <path
           clip-path="url(#pe3b91a0317)"
           d="M 95.115789 252  L 100.989474 252  L 100.989474 242.863866  L 95.115789 242.863866  z "
           style="fill:#1f77b4;"
           id="path2835" />
      </g>
      <g
         id="patch_11">
        <path
           clip-path="url(#pe3b91a0317)"
           d="M 100.989474 252  L 106.863158 252  L 106.863158 239.818487  L 100.989474 239.818487  z "
           style="fill:#1f77b4;"
           id="path2838" />
      </g>
      <g
         id="patch_12">
        <path
           clip-path="url(#pe3b91a0317)"
           d="M 106.863158 252  L 112.736842 252  L 112.736842 233.727731  L 106.863158 233.727731  z "
           style="fill:#1f77b4;"
           id="path2841" />
      </g>
      <g
         id="patch_13">
        <path
           clip-path="url(#pe3b91a0317)"
           d="M 112.736842 252  L 118.610526 252  L 118.610526 245.909244  L 112.736842 245.909244  z "
           style="fill:#1f77b4;"
           id="path2844" />
      </g>
      <g
         id="patch_14">
        <path
           clip-path="url(#pe3b91a0317)"
           d="M 118.610526 252  L 124.484211 252  L 124.484211 227.636975  L 118.610526 227.636975  z "
           style="fill:#1f77b4;"
           id="path2847" />
      </g>
      <g
         id="patch_15">
        <path
           clip-path="url(#pe3b91a0317)"
           d="M 124.484211 252  L 130.357895 252  L 130.357895 233.727731  L 124.484211 233.727731  z "
           style="fill:#1f77b4;"
           id="path2850" />
      </g>
      <g
         id="patch_16">
        <path
           clip-path="url(#pe3b91a0317)"
           d="M 130.357895 252  L 136.231579 252  L 136.231579 245.909244  L 130.357895 245.909244  z "
           style="fill:#1f77b4;"
           id="path2853" />
      </g>
      <g
         id="patch_17">
        <path
           clip-path="url(#pe3b91a0317)"
           d="M 136.231579 252  L 142.105263 252  L 142.105263 242.863866  L 136.231579 242.863866  z "
           style="fill:#1f77b4;"
           id="path2856" />
      </g>
      <g
         id="patch_18">
        <path
           clip-path="url(#pe3b91a0317)"
           d="M 142.105263 252  L 147.978947 252  L 147.978947 242.863866  L 142.105263 242.863866  z "
           style="fill:#1f77b4;"
           id="path2859" />
      </g>
      <g
         id="patch_19">
        <path
           clip-path="url(#pe3b91a0317)"
           d="M 147.978947 252  L 153.852632 252  L 153.852632 242.863866  L 147.978947 242.863866  z "
           style="fill:#1f77b4;"
           id="path2862" />
      </g>
      <g
         id="patch_20">
        <path
           clip-path="url(#pe3b91a0317)"
           d="M 153.852632 252  L 159.726316 252  L 159.726316 233.727731  L 153.852632 233.727731  z "
           style="fill:#1f77b4;"
           id="path2865" />
      </g>
      <g
         id="patch_21">
        <path
           clip-path="url(#pe3b91a0317)"
           d="M 159.726316 252  L 165.6 252  L 165.6 233.727731  L 159.726316 233.727731  z "
           style="fill:#1f77b4;"
           id="path2868" />
      </g>
      <g
         id="patch_22">
        <path
           clip-path="url(#pe3b91a0317)"
           d="M 165.6 252  L 171.473684 252  L 171.473684 239.818487  L 165.6 239.818487  z "
           style="fill:#1f77b4;"
           id="path2871" />
      </g>
      <g
         id="patch_23">
        <path
           clip-path="url(#pe3b91a0317)"
           d="M 171.473684 252  L 177.347368 252  L 177.347368 227.636975  L 171.473684 227.636975  z "
           style="fill:#1f77b4;"
           id="path2874" />
      </g>
      <g
         id="patch_24">
        <path
           clip-path="url(#pe3b91a0317)"
           d="M 177.347368 252  L 183.221053 252  L 183.221053 227.636975  L 177.347368 227.636975  z "
           style="fill:#1f77b4;"
           id="path2877" />
      </g>
      <g
         id="patch_25">
        <path
           clip-path="url(#pe3b91a0317)"
           d="M 183.221053 252  L 189.094737 252  L 189.094737 236.773109  L 183.221053 236.773109  z "
           style="fill:#1f77b4;"
           id="path2880" />
      </g>
      <g
         id="patch_26">
        <path
           clip-path="url(#pe3b91a0317)"
           d="M 189.094737 252  L 194.968421 252  L 194.968421 230.682353  L 189.094737 230.682353  z "
           style="fill:#1f77b4;"
           id="path2883" />
      </g>
      <g
         id="patch_27">
        <path
           clip-path="url(#pe3b91a0317)"
           d="M 194.968421 252  L 200.842105 252  L 200.842105 191.092437  L 194.968421 191.092437  z "
           style="fill:#1f77b4;"
           id="path2886" />
      </g>
      <g
         id="patch_28">
        <path
           clip-path="url(#pe3b91a0317)"
           d="M 200.842105 252  L 206.715789 252  L 206.715789 221.546218  L 200.842105 221.546218  z "
           style="fill:#1f77b4;"
           id="path2889" />
      </g>
      <g
         id="patch_29">
        <path
           clip-path="url(#pe3b91a0317)"
           d="M 206.715789 252  L 212.589474 252  L 212.589474 212.410084  L 206.715789 212.410084  z "
           style="fill:#1f77b4;"
           id="path2892" />
      </g>
      <g
         id="patch_30">
        <path
           clip-path="url(#pe3b91a0317)"
           d="M 212.589474 252  L 218.463158 252  L 218.463158 224.591597  L 212.589474 224.591597  z "
           style="fill:#1f77b4;"
           id="path2895" />
      </g>
      <g
         id="patch_31">
        <path
           clip-path="url(#pe3b91a0317)"
           d="M 218.463158 252  L 224.336842 252  L 224.336842 221.546218  L 218.463158 221.546218  z "
           style="fill:#1f77b4;"
           id="path2898" />
      </g>
      <g
         id="patch_32">
        <path
           clip-path="url(#pe3b91a0317)"
           d="M 224.336842 252  L 230.210526 252  L 230.210526 212.410084  L 224.336842 212.410084  z "
           style="fill:#1f77b4;"
           id="path2901" />
      </g>
      <g
         id="patch_33">
        <path
           clip-path="url(#pe3b91a0317)"
           d="M 230.210526 252  L 236.084211 252  L 236.084211 221.546218  L 230.210526 221.546218  z "
           style="fill:#1f77b4;"
           id="path2904" />
      </g>
      <g
         id="patch_34">
        <path
           clip-path="url(#pe3b91a0317)"
           d="M 236.084211 252  L 241.957895 252  L 241.957895 236.773109  L 236.084211 236.773109  z "
           style="fill:#1f77b4;"
           id="path2907" />
      </g>
      <g
         id="patch_35">
        <path
           clip-path="url(#pe3b91a0317)"
           d="M 241.957895 252  L 247.831579 252  L 247.831579 230.682353  L 241.957895 230.682353  z "
           style="fill:#1f77b4;"
           id="path2910" />
      </g>
      <g
         id="patch_36">
        <path
           clip-path="url(#pe3b91a0317)"
           d="M 247.831579 252  L 253.705263 252  L 253.705263 227.636975  L 247.831579 227.636975  z "
           style="fill:#1f77b4;"
           id="path2913" />
      </g>
      <g
         id="patch_37">
        <path
           clip-path="url(#pe3b91a0317)"
           d="M 253.705263 252  L 259.578947 252  L 259.578947 215.455462  L 253.705263 215.455462  z "
           style="fill:#1f77b4;"
           id="path2916" />
      </g>
      <g
         id="patch_38">
        <path
           clip-path="url(#pe3b91a0317)"
           d="M 259.578947 252  L 265.452632 252  L 265.452632 233.727731  L 259.578947 233.727731  z "
           style="fill:#1f77b4;"
           id="path2919" />
      </g>
      <g
         id="patch_39">
        <path
           clip-path="url(#pe3b91a0317)"
           d="M 265.452632 252  L 271.326316 252  L 271.326316 230.682353  L 265.452632 230.682353  z "
           style="fill:#1f77b4;"
           id="path2922" />
      </g>
      <g
         id="patch_40">
        <path
           clip-path="url(#pe3b91a0317)"
           d="M 271.326316 252  L 277.2 252  L 277.2 239.818487  L 271.326316 239.818487  z "
           style="fill:#1f77b4;"
           id="path2925" />
      </g>
      <g
         id="patch_41">
        <path
           clip-path="url(#pe3b91a0317)"
           d="M 277.2 252  L 283.073684 252  L 283.073684 215.455462  L 277.2 215.455462  z "
           style="fill:#1f77b4;"
           id="path2928" />
      </g>
      <g
         id="patch_42">
        <path
           clip-path="url(#pe3b91a0317)"
           d="M 283.073684 252  L 288.947368 252  L 288.947368 221.546218  L 283.073684 221.546218  z "
           style="fill:#1f77b4;"
           id="path2931" />
      </g>
      <g
         id="patch_43">
        <path
           clip-path="url(#pe3b91a0317)"
           d="M 288.947368 252  L 294.821053 252  L 294.821053 221.546218  L 288.947368 221.546218  z "
           style="fill:#1f77b4;"
           id="path2934" />
      </g>
      <g
         id="patch_44">
        <path
           clip-path="url(#pe3b91a0317)"
           d="M 294.821053 252  L 300.694737 252  L 300.694737 227.636975  L 294.821053 227.636975  z "
           style="fill:#1f77b4;"
           id="path2937" />
      </g>
      <g
         id="patch_45">
        <path
           clip-path="url(#pe3b91a0317)"
           d="M 300.694737 252  L 306.568421 252  L 306.568421 203.27395  L 300.694737 203.27395  z "
           style="fill:#1f77b4;"
           id="path2940" />
      </g>
      <g
         id="patch_46">
        <path
           clip-path="url(#pe3b91a0317)"
           d="M 306.568421 252  L 312.442105 252  L 312.442105 233.727731  L 306.568421 233.727731  z "
           style="fill:#1f77b4;"
           id="path2943" />
      </g>
      <g
         id="patch_47">
        <path
           clip-path="url(#pe3b91a0317)"
           d="M 312.442105 252  L 318.315789 252  L 318.315789 248.954622  L 312.442105 248.954622  z "
           style="fill:#1f77b4;"
           id="path2946" />
      </g>
      <g
         id="patch_48">
        <path
           clip-path="url(#pe3b91a0317)"
           d="M 318.315789 252  L 324.189474 252  L 324.189474 227.636975  L 318.315789 227.636975  z "
           style="fill:#1f77b4;"
           id="path2949" />
      </g>
      <g
         id="patch_49">
        <path
           clip-path="url(#pe3b91a0317)"
           d="M 324.189474 252  L 330.063158 252  L 330.063158 133.230252  L 324.189474 133.230252  z "
           style="fill:#1f77b4;"
           id="path2952" />
      </g>
      <g
         id="patch_50">
        <path
           clip-path="url(#pe3b91a0317)"
           d="M 330.063158 252  L 335.936842 252  L 335.936842 172.820168  L 330.063158 172.820168  z "
           style="fill:#1f77b4;"
           id="path2955" />
      </g>
      <g
         id="patch_51">
        <path
           clip-path="url(#pe3b91a0317)"
           d="M 335.936842 252  L 341.810526 252  L 341.810526 136.27563  L 335.936842 136.27563  z "
           style="fill:#1f77b4;"
           id="path2958" />
      </g>
      <g
         id="patch_52">
        <path
           clip-path="url(#pe3b91a0317)"
           d="M 341.810526 252  L 347.684211 252  L 347.684211 172.820168  L 341.810526 172.820168  z "
           style="fill:#1f77b4;"
           id="path2961" />
      </g>
      <g
         id="patch_53">
        <path
           clip-path="url(#pe3b91a0317)"
           d="M 347.684211 252  L 353.557895 252  L 353.557895 157.593277  L 347.684211 157.593277  z "
           style="fill:#1f77b4;"
           id="path2964" />
      </g>
      <g
         id="patch_54">
        <path
           clip-path="url(#pe3b91a0317)"
           d="M 353.557895 252  L 359.431579 252  L 359.431579 188.047059  L 353.557895 188.047059  z "
           style="fill:#1f77b4;"
           id="path2967" />
      </g>
      <g
         id="patch_55">
        <path
           clip-path="url(#pe3b91a0317)"
           d="M 359.431579 252  L 365.305263 252  L 365.305263 188.047059  L 359.431579 188.047059  z "
           style="fill:#1f77b4;"
           id="path2970" />
      </g>
      <g
         id="patch_56">
        <path
           clip-path="url(#pe3b91a0317)"
           d="M 365.305263 252  L 371.178947 252  L 371.178947 163.684034  L 365.305263 163.684034  z "
           style="fill:#1f77b4;"
           id="path2973" />
      </g>
      <g
         id="patch_57">
        <path
           clip-path="url(#pe3b91a0317)"
           d="M 371.178947 252  L 377.052632 252  L 377.052632 75.368067  L 371.178947 75.368067  z "
           style="fill:#1f77b4;"
           id="path2976" />
      </g>
      <g
         id="patch_58">
        <path
           clip-path="url(#pe3b91a0317)"
           d="M 377.052632 252  L 382.926316 252  L 382.926316 44.914286  L 377.052632 44.914286  z "
           style="fill:#1f77b4;"
           id="path2979" />
      </g>
      <g
         id="patch_59">
        <path
           clip-path="url(#pe3b91a0317)"
           d="M 382.926316 252  L 388.8 252  L 388.8 54.05042  L 382.926316 54.05042  z "
           style="fill:#1f77b4;"
           id="path2982" />
      </g>
      <g
         id="matplotlib.axis_1">
        <g
           id="xtick_1">
          <g
             id="line2d_1">
            <defs
               id="defs2986">
              <path
                 d="M 0 0  L 0 3.5  "
                 id="m45ac59156c"
                 style="stroke:#000000;stroke-width:0.8;" />
            </defs>
            <g
               id="g2990">
              <use
                 style="stroke:#000000;stroke-width:0.8;"
                 x="56.936842"
                 xlink:href="#m45ac59156c"
                 y="252"
                 id="use2988" />
            </g>
          </g>
          <g
             id="text_1">
            <!-- 0 -->
            <defs
               id="defs2994">
              <path
                 d="M 31.78125 66.40625  Q 24.171875 66.40625 20.328125 58.90625  Q 16.5 51.421875 16.5 36.375  Q 16.5 21.390625 20.328125 13.890625  Q 24.171875 6.390625 31.78125 6.390625  Q 39.453125 6.390625 43.28125 13.890625  Q 47.125 21.390625 47.125 36.375  Q 47.125 51.421875 43.28125 58.90625  Q 39.453125 66.40625 31.78125 66.40625  z M 31.78125 74.21875  Q 44.046875 74.21875 50.515625 64.515625  Q 56.984375 54.828125 56.984375 36.375  Q 56.984375 17.96875 50.515625 8.265625  Q 44.046875 -1.421875 31.78125 -1.421875  Q 19.53125 -1.421875 13.0625 8.265625  Q 6.59375 17.96875 6.59375 36.375  Q 6.59375 54.828125 13.0625 64.515625  Q 19.53125 74.21875 31.78125 74.21875  z "
                 id="DejaVuSans-30" />
            </defs>
            <g
               transform="translate(53.755592 266.598437)scale(0.1 -0.1)"
               id="g2998">
              <use
                 xlink:href="#DejaVuSans-30"
                 id="use2996" />
            </g>
          </g>
        </g>
        <g
           id="xtick_2">
          <g
             id="line2d_2">
            <g
               id="g3004">
              <use
                 style="stroke:#000000;stroke-width:0.8;"
                 x="115.673684"
                 xlink:href="#m45ac59156c"
                 y="252"
                 id="use3002" />
            </g>
          </g>
          <g
             id="text_2">
            <!-- 10 -->
            <defs
               id="defs3008">
              <path
                 d="M 12.40625 8.296875  L 28.515625 8.296875  L 28.515625 63.921875  L 10.984375 60.40625  L 10.984375 69.390625  L 28.421875 72.90625  L 38.28125 72.90625  L 38.28125 8.296875  L 54.390625 8.296875  L 54.390625 0  L 12.40625 0  z "
                 id="DejaVuSans-31" />
            </defs>
            <g
               transform="translate(109.311184 266.598437)scale(0.1 -0.1)"
               id="g3014">
              <use
                 xlink:href="#DejaVuSans-31"
                 id="use3010" />
              <use
                 x="63.623047"
                 xlink:href="#DejaVuSans-30"
                 id="use3012" />
            </g>
          </g>
        </g>
        <g
           id="xtick_3">
          <g
             id="line2d_3">
            <g
               id="g3020">
              <use
                 style="stroke:#000000;stroke-width:0.8;"
                 x="174.410526"
                 xlink:href="#m45ac59156c"
                 y="252"
                 id="use3018" />
            </g>
          </g>
          <g
             id="text_3">
            <!-- 20 -->
            <defs
               id="defs3024">
              <path
                 d="M 19.1875 8.296875  L 53.609375 8.296875  L 53.609375 0  L 7.328125 0  L 7.328125 8.296875  Q 12.9375 14.109375 22.625 23.890625  Q 32.328125 33.6875 34.8125 36.53125  Q 39.546875 41.84375 41.421875 45.53125  Q 43.3125 49.21875 43.3125 52.78125  Q 43.3125 58.59375 39.234375 62.25  Q 35.15625 65.921875 28.609375 65.921875  Q 23.96875 65.921875 18.8125 64.3125  Q 13.671875 62.703125 7.8125 59.421875  L 7.8125 69.390625  Q 13.765625 71.78125 18.9375 73  Q 24.125 74.21875 28.421875 74.21875  Q 39.75 74.21875 46.484375 68.546875  Q 53.21875 62.890625 53.21875 53.421875  Q 53.21875 48.921875 51.53125 44.890625  Q 49.859375 40.875 45.40625 35.40625  Q 44.1875 33.984375 37.640625 27.21875  Q 31.109375 20.453125 19.1875 8.296875  z "
                 id="DejaVuSans-32" />
            </defs>
            <g
               transform="translate(168.048026 266.598437)scale(0.1 -0.1)"
               id="g3030">
              <use
                 xlink:href="#DejaVuSans-32"
                 id="use3026" />
              <use
                 x="63.623047"
                 xlink:href="#DejaVuSans-30"
                 id="use3028" />
            </g>
          </g>
        </g>
        <g
           id="xtick_4">
          <g
             id="line2d_4">
            <g
               id="g3036">
              <use
                 style="stroke:#000000;stroke-width:0.8;"
                 x="233.147368"
                 xlink:href="#m45ac59156c"
                 y="252"
                 id="use3034" />
            </g>
          </g>
          <g
             id="text_4">
            <!-- 30 -->
            <defs
               id="defs3040">
              <path
                 d="M 40.578125 39.3125  Q 47.65625 37.796875 51.625 33  Q 55.609375 28.21875 55.609375 21.1875  Q 55.609375 10.40625 48.1875 4.484375  Q 40.765625 -1.421875 27.09375 -1.421875  Q 22.515625 -1.421875 17.65625 -0.515625  Q 12.796875 0.390625 7.625 2.203125  L 7.625 11.71875  Q 11.71875 9.328125 16.59375 8.109375  Q 21.484375 6.890625 26.8125 6.890625  Q 36.078125 6.890625 40.9375 10.546875  Q 45.796875 14.203125 45.796875 21.1875  Q 45.796875 27.640625 41.28125 31.265625  Q 36.765625 34.90625 28.71875 34.90625  L 20.21875 34.90625  L 20.21875 43.015625  L 29.109375 43.015625  Q 36.375 43.015625 40.234375 45.921875  Q 44.09375 48.828125 44.09375 54.296875  Q 44.09375 59.90625 40.109375 62.90625  Q 36.140625 65.921875 28.71875 65.921875  Q 24.65625 65.921875 20.015625 65.03125  Q 15.375 64.15625 9.8125 62.3125  L 9.8125 71.09375  Q 15.4375 72.65625 20.34375 73.4375  Q 25.25 74.21875 29.59375 74.21875  Q 40.828125 74.21875 47.359375 69.109375  Q 53.90625 64.015625 53.90625 55.328125  Q 53.90625 49.265625 50.4375 45.09375  Q 46.96875 40.921875 40.578125 39.3125  z "
                 id="DejaVuSans-33" />
            </defs>
            <g
               transform="translate(226.784868 266.598437)scale(0.1 -0.1)"
               id="g3046">
              <use
                 xlink:href="#DejaVuSans-33"
                 id="use3042" />
              <use
                 x="63.623047"
                 xlink:href="#DejaVuSans-30"
                 id="use3044" />
            </g>
          </g>
        </g>
        <g
           id="xtick_5">
          <g
             id="line2d_5">
            <g
               id="g3052">
              <use
                 style="stroke:#000000;stroke-width:0.8;"
                 x="291.884211"
                 xlink:href="#m45ac59156c"
                 y="252"
                 id="use3050" />
            </g>
          </g>
          <g
             id="text_5">
            <!-- 40 -->
            <defs
               id="defs3056">
              <path
                 d="M 37.796875 64.3125  L 12.890625 25.390625  L 37.796875 25.390625  z M 35.203125 72.90625  L 47.609375 72.90625  L 47.609375 25.390625  L 58.015625 25.390625  L 58.015625 17.1875  L 47.609375 17.1875  L 47.609375 0  L 37.796875 0  L 37.796875 17.1875  L 4.890625 17.1875  L 4.890625 26.703125  z "
                 id="DejaVuSans-34" />
            </defs>
            <g
               transform="translate(285.521711 266.598437)scale(0.1 -0.1)"
               id="g3062">
              <use
                 xlink:href="#DejaVuSans-34"
                 id="use3058" />
              <use
                 x="63.623047"
                 xlink:href="#DejaVuSans-30"
                 id="use3060" />
            </g>
          </g>
        </g>
        <g
           id="xtick_6">
          <g
             id="line2d_6">
            <g
               id="g3068">
              <use
                 style="stroke:#000000;stroke-width:0.8;"
                 x="350.621053"
                 xlink:href="#m45ac59156c"
                 y="252"
                 id="use3066" />
            </g>
          </g>
          <g
             id="text_6">
            <!-- 50 -->
            <defs
               id="defs3072">
              <path
                 d="M 10.796875 72.90625  L 49.515625 72.90625  L 49.515625 64.59375  L 19.828125 64.59375  L 19.828125 46.734375  Q 21.96875 47.46875 24.109375 47.828125  Q 26.265625 48.1875 28.421875 48.1875  Q 40.625 48.1875 47.75 41.5  Q 54.890625 34.8125 54.890625 23.390625  Q 54.890625 11.625 47.5625 5.09375  Q 40.234375 -1.421875 26.90625 -1.421875  Q 22.3125 -1.421875 17.546875 -0.640625  Q 12.796875 0.140625 7.71875 1.703125  L 7.71875 11.625  Q 12.109375 9.234375 16.796875 8.0625  Q 21.484375 6.890625 26.703125 6.890625  Q 35.15625 6.890625 40.078125 11.328125  Q 45.015625 15.765625 45.015625 23.390625  Q 45.015625 31 40.078125 35.4375  Q 35.15625 39.890625 26.703125 39.890625  Q 22.75 39.890625 18.8125 39.015625  Q 14.890625 38.140625 10.796875 36.28125  z "
                 id="DejaVuSans-35" />
            </defs>
            <g
               transform="translate(344.258553 266.598437)scale(0.1 -0.1)"
               id="g3078">
              <use
                 xlink:href="#DejaVuSans-35"
                 id="use3074" />
              <use
                 x="63.623047"
                 xlink:href="#DejaVuSans-30"
                 id="use3076" />
            </g>
          </g>
        </g>
        <g
           id="text_7">
          <!-- weeks since inception -->
          <defs
             id="defs3093">
            <path
               d="M 4.203125 54.6875  L 13.1875 54.6875  L 24.421875 12.015625  L 35.59375 54.6875  L 46.1875 54.6875  L 57.421875 12.015625  L 68.609375 54.6875  L 77.59375 54.6875  L 63.28125 0  L 52.6875 0  L 40.921875 44.828125  L 29.109375 0  L 18.5 0  z "
               id="DejaVuSans-77" />
            <path
               d="M 56.203125 29.59375  L 56.203125 25.203125  L 14.890625 25.203125  Q 15.484375 15.921875 20.484375 11.0625  Q 25.484375 6.203125 34.421875 6.203125  Q 39.59375 6.203125 44.453125 7.46875  Q 49.3125 8.734375 54.109375 11.28125  L 54.109375 2.78125  Q 49.265625 0.734375 44.1875 -0.34375  Q 39.109375 -1.421875 33.890625 -1.421875  Q 20.796875 -1.421875 13.15625 6.1875  Q 5.515625 13.8125 5.515625 26.8125  Q 5.515625 40.234375 12.765625 48.109375  Q 20.015625 56 32.328125 56  Q 43.359375 56 49.78125 48.890625  Q 56.203125 41.796875 56.203125 29.59375  z M 47.21875 32.234375  Q 47.125 39.59375 43.09375 43.984375  Q 39.0625 48.390625 32.421875 48.390625  Q 24.90625 48.390625 20.390625 44.140625  Q 15.875 39.890625 15.1875 32.171875  z "
               id="DejaVuSans-65" />
            <path
               d="M 9.078125 75.984375  L 18.109375 75.984375  L 18.109375 31.109375  L 44.921875 54.6875  L 56.390625 54.6875  L 27.390625 29.109375  L 57.625 0  L 45.90625 0  L 18.109375 26.703125  L 18.109375 0  L 9.078125 0  z "
               id="DejaVuSans-6b" />
            <path
               d="M 44.28125 53.078125  L 44.28125 44.578125  Q 40.484375 46.53125 36.375 47.5  Q 32.28125 48.484375 27.875 48.484375  Q 21.1875 48.484375 17.84375 46.4375  Q 14.5 44.390625 14.5 40.28125  Q 14.5 37.15625 16.890625 35.375  Q 19.28125 33.59375 26.515625 31.984375  L 29.59375 31.296875  Q 39.15625 29.25 43.1875 25.515625  Q 47.21875 21.78125 47.21875 15.09375  Q 47.21875 7.46875 41.1875 3.015625  Q 35.15625 -1.421875 24.609375 -1.421875  Q 20.21875 -1.421875 15.453125 -0.5625  Q 10.6875 0.296875 5.421875 2  L 5.421875 11.28125  Q 10.40625 8.6875 15.234375 7.390625  Q 20.0625 6.109375 24.8125 6.109375  Q 31.15625 6.109375 34.5625 8.28125  Q 37.984375 10.453125 37.984375 14.40625  Q 37.984375 18.0625 35.515625 20.015625  Q 33.0625 21.96875 24.703125 23.78125  L 21.578125 24.515625  Q 13.234375 26.265625 9.515625 29.90625  Q 5.8125 33.546875 5.8125 39.890625  Q 5.8125 47.609375 11.28125 51.796875  Q 16.75 56 26.8125 56  Q 31.78125 56 36.171875 55.265625  Q 40.578125 54.546875 44.28125 53.078125  z "
               id="DejaVuSans-73" />
            <path
               id="DejaVuSans-20" />
            <path
               d="M 9.421875 54.6875  L 18.40625 54.6875  L 18.40625 0  L 9.421875 0  z M 9.421875 75.984375  L 18.40625 75.984375  L 18.40625 64.59375  L 9.421875 64.59375  z "
               id="DejaVuSans-69" />
            <path
               d="M 54.890625 33.015625  L 54.890625 0  L 45.90625 0  L 45.90625 32.71875  Q 45.90625 40.484375 42.875 44.328125  Q 39.84375 48.1875 33.796875 48.1875  Q 26.515625 48.1875 22.3125 43.546875  Q 18.109375 38.921875 18.109375 30.90625  L 18.109375 0  L 9.078125 0  L 9.078125 54.6875  L 18.109375 54.6875  L 18.109375 46.1875  Q 21.34375 51.125 25.703125 53.5625  Q 30.078125 56 35.796875 56  Q 45.21875 56 50.046875 50.171875  Q 54.890625 44.34375 54.890625 33.015625  z "
               id="DejaVuSans-6e" />
            <path
               d="M 48.78125 52.59375  L 48.78125 44.1875  Q 44.96875 46.296875 41.140625 47.34375  Q 37.3125 48.390625 33.40625 48.390625  Q 24.65625 48.390625 19.8125 42.84375  Q 14.984375 37.3125 14.984375 27.296875  Q 14.984375 17.28125 19.8125 11.734375  Q 24.65625 6.203125 33.40625 6.203125  Q 37.3125 6.203125 41.140625 7.25  Q 44.96875 8.296875 48.78125 10.40625  L 48.78125 2.09375  Q 45.015625 0.34375 40.984375 -0.53125  Q 36.96875 -1.421875 32.421875 -1.421875  Q 20.0625 -1.421875 12.78125 6.34375  Q 5.515625 14.109375 5.515625 27.296875  Q 5.515625 40.671875 12.859375 48.328125  Q 20.21875 56 33.015625 56  Q 37.15625 56 41.109375 55.140625  Q 45.0625 54.296875 48.78125 52.59375  z "
               id="DejaVuSans-63" />
            <path
               d="M 18.109375 8.203125  L 18.109375 -20.796875  L 9.078125 -20.796875  L 9.078125 54.6875  L 18.109375 54.6875  L 18.109375 46.390625  Q 20.953125 51.265625 25.265625 53.625  Q 29.59375 56 35.59375 56  Q 45.5625 56 51.78125 48.09375  Q 58.015625 40.1875 58.015625 27.296875  Q 58.015625 14.40625 51.78125 6.484375  Q 45.5625 -1.421875 35.59375 -1.421875  Q 29.59375 -1.421875 25.265625 0.953125  Q 20.953125 3.328125 18.109375 8.203125  z M 48.6875 27.296875  Q 48.6875 37.203125 44.609375 42.84375  Q 40.53125 48.484375 33.40625 48.484375  Q 26.265625 48.484375 22.1875 42.84375  Q 18.109375 37.203125 18.109375 27.296875  Q 18.109375 17.390625 22.1875 11.75  Q 26.265625 6.109375 33.40625 6.109375  Q 40.53125 6.109375 44.609375 11.75  Q 48.6875 17.390625 48.6875 27.296875  z "
               id="DejaVuSans-70" />
            <path
               d="M 18.3125 70.21875  L 18.3125 54.6875  L 36.8125 54.6875  L 36.8125 47.703125  L 18.3125 47.703125  L 18.3125 18.015625  Q 18.3125 11.328125 20.140625 9.421875  Q 21.96875 7.515625 27.59375 7.515625  L 36.8125 7.515625  L 36.8125 0  L 27.59375 0  Q 17.1875 0 13.234375 3.875  Q 9.28125 7.765625 9.28125 18.015625  L 9.28125 47.703125  L 2.6875 47.703125  L 2.6875 54.6875  L 9.28125 54.6875  L 9.28125 70.21875  z "
               id="DejaVuSans-74" />
            <path
               d="M 30.609375 48.390625  Q 23.390625 48.390625 19.1875 42.75  Q 14.984375 37.109375 14.984375 27.296875  Q 14.984375 17.484375 19.15625 11.84375  Q 23.34375 6.203125 30.609375 6.203125  Q 37.796875 6.203125 41.984375 11.859375  Q 46.1875 17.53125 46.1875 27.296875  Q 46.1875 37.015625 41.984375 42.703125  Q 37.796875 48.390625 30.609375 48.390625  z M 30.609375 56  Q 42.328125 56 49.015625 48.375  Q 55.71875 40.765625 55.71875 27.296875  Q 55.71875 13.875 49.015625 6.21875  Q 42.328125 -1.421875 30.609375 -1.421875  Q 18.84375 -1.421875 12.171875 6.21875  Q 5.515625 13.875 5.515625 27.296875  Q 5.515625 40.765625 12.171875 48.375  Q 18.84375 56 30.609375 56  z "
               id="DejaVuSans-6f" />
          </defs>
          <g
             transform="translate(166.35625 280.276563)scale(0.1 -0.1)"
             id="g3137">
            <use
               xlink:href="#DejaVuSans-77"
               id="use3095" />
            <use
               x="81.787109"
               xlink:href="#DejaVuSans-65"
               id="use3097" />
            <use
               x="143.310547"
               xlink:href="#DejaVuSans-65"
               id="use3099" />
            <use
               x="204.833984"
               xlink:href="#DejaVuSans-6b"
               id="use3101" />
            <use
               x="262.744141"
               xlink:href="#DejaVuSans-73"
               id="use3103" />
            <use
               x="314.84375"
               xlink:href="#DejaVuSans-20"
               id="use3105" />
            <use
               x="346.630859"
               xlink:href="#DejaVuSans-73"
               id="use3107" />
            <use
               x="398.730469"
               xlink:href="#DejaVuSans-69"
               id="use3109" />
            <use
               x="426.513672"
               xlink:href="#DejaVuSans-6e"
               id="use3111" />
            <use
               x="489.892578"
               xlink:href="#DejaVuSans-63"
               id="use3113" />
            <use
               x="544.873047"
               xlink:href="#DejaVuSans-65"
               id="use3115" />
            <use
               x="606.396484"
               xlink:href="#DejaVuSans-20"
               id="use3117" />
            <use
               x="638.183594"
               xlink:href="#DejaVuSans-69"
               id="use3119" />
            <use
               x="665.966797"
               xlink:href="#DejaVuSans-6e"
               id="use3121" />
            <use
               x="729.345703"
               xlink:href="#DejaVuSans-63"
               id="use3123" />
            <use
               x="784.326172"
               xlink:href="#DejaVuSans-65"
               id="use3125" />
            <use
               x="845.849609"
               xlink:href="#DejaVuSans-70"
               id="use3127" />
            <use
               x="909.326172"
               xlink:href="#DejaVuSans-74"
               id="use3129" />
            <use
               x="948.535156"
               xlink:href="#DejaVuSans-69"
               id="use3131" />
            <use
               x="976.318359"
               xlink:href="#DejaVuSans-6f"
               id="use3133" />
            <use
               x="1037.5"
               xlink:href="#DejaVuSans-6e"
               id="use3135" />
          </g>
        </g>
      </g>
      <g
         id="matplotlib.axis_2">
        <g
           id="ytick_1">
          <g
             id="line2d_7">
            <defs
               id="defs3142">
              <path
                 d="M 0 0  L -3.5 0  "
                 id="m485c3df637"
                 style="stroke:#000000;stroke-width:0.8;" />
            </defs>
            <g
               id="g3146">
              <use
                 style="stroke:#000000;stroke-width:0.8;"
                 x="54"
                 xlink:href="#m485c3df637"
                 y="252"
                 id="use3144" />
            </g>
          </g>
          <g
             id="text_8">
            <!-- 0 -->
            <g
               transform="translate(40.6375 255.799219)scale(0.1 -0.1)"
               id="g3151">
              <use
                 xlink:href="#DejaVuSans-30"
                 id="use3149" />
            </g>
          </g>
        </g>
        <g
           id="ytick_2">
          <g
             id="line2d_8">
            <g
               id="g3157">
              <use
                 style="stroke:#000000;stroke-width:0.8;"
                 x="54"
                 xlink:href="#m485c3df637"
                 y="221.546218"
                 id="use3155" />
            </g>
          </g>
          <g
             id="text_9">
            <!-- 10 -->
            <g
               transform="translate(34.275 225.345437)scale(0.1 -0.1)"
               id="g3164">
              <use
                 xlink:href="#DejaVuSans-31"
                 id="use3160" />
              <use
                 x="63.623047"
                 xlink:href="#DejaVuSans-30"
                 id="use3162" />
            </g>
          </g>
        </g>
        <g
           id="ytick_3">
          <g
             id="line2d_9">
            <g
               id="g3170">
              <use
                 style="stroke:#000000;stroke-width:0.8;"
                 x="54"
                 xlink:href="#m485c3df637"
                 y="191.092437"
                 id="use3168" />
            </g>
          </g>
          <g
             id="text_10">
            <!-- 20 -->
            <g
               transform="translate(34.275 194.891656)scale(0.1 -0.1)"
               id="g3177">
              <use
                 xlink:href="#DejaVuSans-32"
                 id="use3173" />
              <use
                 x="63.623047"
                 xlink:href="#DejaVuSans-30"
                 id="use3175" />
            </g>
          </g>
        </g>
        <g
           id="ytick_4">
          <g
             id="line2d_10">
            <g
               id="g3183">
              <use
                 style="stroke:#000000;stroke-width:0.8;"
                 x="54"
                 xlink:href="#m485c3df637"
                 y="160.638655"
                 id="use3181" />
            </g>
          </g>
          <g
             id="text_11">
            <!-- 30 -->
            <g
               transform="translate(34.275 164.437874)scale(0.1 -0.1)"
               id="g3190">
              <use
                 xlink:href="#DejaVuSans-33"
                 id="use3186" />
              <use
                 x="63.623047"
                 xlink:href="#DejaVuSans-30"
                 id="use3188" />
            </g>
          </g>
        </g>
        <g
           id="ytick_5">
          <g
             id="line2d_11">
            <g
               id="g3196">
              <use
                 style="stroke:#000000;stroke-width:0.8;"
                 x="54"
                 xlink:href="#m485c3df637"
                 y="130.184874"
                 id="use3194" />
            </g>
          </g>
          <g
             id="text_12">
            <!-- 40 -->
            <g
               transform="translate(34.275 133.984093)scale(0.1 -0.1)"
               id="g3203">
              <use
                 xlink:href="#DejaVuSans-34"
                 id="use3199" />
              <use
                 x="63.623047"
                 xlink:href="#DejaVuSans-30"
                 id="use3201" />
            </g>
          </g>
        </g>
        <g
           id="ytick_6">
          <g
             id="line2d_12">
            <g
               id="g3209">
              <use
                 style="stroke:#000000;stroke-width:0.8;"
                 x="54"
                 xlink:href="#m485c3df637"
                 y="99.731092"
                 id="use3207" />
            </g>
          </g>
          <g
             id="text_13">
            <!-- 50 -->
            <g
               transform="translate(34.275 103.530311)scale(0.1 -0.1)"
               id="g3216">
              <use
                 xlink:href="#DejaVuSans-35"
                 id="use3212" />
              <use
                 x="63.623047"
                 xlink:href="#DejaVuSans-30"
                 id="use3214" />
            </g>
          </g>
        </g>
        <g
           id="ytick_7">
          <g
             id="line2d_13">
            <g
               id="g3222">
              <use
                 style="stroke:#000000;stroke-width:0.8;"
                 x="54"
                 xlink:href="#m485c3df637"
                 y="69.277311"
                 id="use3220" />
            </g>
          </g>
          <g
             id="text_14">
            <!-- 60 -->
            <defs
               id="defs3226">
              <path
                 d="M 33.015625 40.375  Q 26.375 40.375 22.484375 35.828125  Q 18.609375 31.296875 18.609375 23.390625  Q 18.609375 15.53125 22.484375 10.953125  Q 26.375 6.390625 33.015625 6.390625  Q 39.65625 6.390625 43.53125 10.953125  Q 47.40625 15.53125 47.40625 23.390625  Q 47.40625 31.296875 43.53125 35.828125  Q 39.65625 40.375 33.015625 40.375  z M 52.59375 71.296875  L 52.59375 62.3125  Q 48.875 64.0625 45.09375 64.984375  Q 41.3125 65.921875 37.59375 65.921875  Q 27.828125 65.921875 22.671875 59.328125  Q 17.53125 52.734375 16.796875 39.40625  Q 19.671875 43.65625 24.015625 45.921875  Q 28.375 48.1875 33.59375 48.1875  Q 44.578125 48.1875 50.953125 41.515625  Q 57.328125 34.859375 57.328125 23.390625  Q 57.328125 12.15625 50.6875 5.359375  Q 44.046875 -1.421875 33.015625 -1.421875  Q 20.359375 -1.421875 13.671875 8.265625  Q 6.984375 17.96875 6.984375 36.375  Q 6.984375 53.65625 15.1875 63.9375  Q 23.390625 74.21875 37.203125 74.21875  Q 40.921875 74.21875 44.703125 73.484375  Q 48.484375 72.75 52.59375 71.296875  z "
                 id="DejaVuSans-36" />
            </defs>
            <g
               transform="translate(34.275 73.07653)scale(0.1 -0.1)"
               id="g3232">
              <use
                 xlink:href="#DejaVuSans-36"
                 id="use3228" />
              <use
                 x="63.623047"
                 xlink:href="#DejaVuSans-30"
                 id="use3230" />
            </g>
          </g>
        </g>
        <g
           id="ytick_8">
          <g
             id="line2d_14">
            <g
               id="g3238">
              <use
                 style="stroke:#000000;stroke-width:0.8;"
                 x="54"
                 xlink:href="#m485c3df637"
                 y="38.823529"
                 id="use3236" />
            </g>
          </g>
          <g
             id="text_15">
            <!-- 70 -->
            <defs
               id="defs3242">
              <path
                 d="M 8.203125 72.90625  L 55.078125 72.90625  L 55.078125 68.703125  L 28.609375 0  L 18.3125 0  L 43.21875 64.59375  L 8.203125 64.59375  z "
                 id="DejaVuSans-37" />
            </defs>
            <g
               transform="translate(34.275 42.622748)scale(0.1 -0.1)"
               id="g3248">
              <use
                 xlink:href="#DejaVuSans-37"
                 id="use3244" />
              <use
                 x="63.623047"
                 xlink:href="#DejaVuSans-30"
                 id="use3246" />
            </g>
          </g>
        </g>
        <g
           id="text_16">
          <!-- number of unique downloaders per week -->
          <defs
             id="defs3261">
            <path
               d="M 8.5 21.578125  L 8.5 54.6875  L 17.484375 54.6875  L 17.484375 21.921875  Q 17.484375 14.15625 20.5 10.265625  Q 23.53125 6.390625 29.59375 6.390625  Q 36.859375 6.390625 41.078125 11.03125  Q 45.3125 15.671875 45.3125 23.6875  L 45.3125 54.6875  L 54.296875 54.6875  L 54.296875 0  L 45.3125 0  L 45.3125 8.40625  Q 42.046875 3.421875 37.71875 1  Q 33.40625 -1.421875 27.6875 -1.421875  Q 18.265625 -1.421875 13.375 4.4375  Q 8.5 10.296875 8.5 21.578125  z M 31.109375 56  z "
               id="DejaVuSans-75" />
            <path
               d="M 52 44.1875  Q 55.375 50.25 60.0625 53.125  Q 64.75 56 71.09375 56  Q 79.640625 56 84.28125 50.015625  Q 88.921875 44.046875 88.921875 33.015625  L 88.921875 0  L 79.890625 0  L 79.890625 32.71875  Q 79.890625 40.578125 77.09375 44.375  Q 74.3125 48.1875 68.609375 48.1875  Q 61.625 48.1875 57.5625 43.546875  Q 53.515625 38.921875 53.515625 30.90625  L 53.515625 0  L 44.484375 0  L 44.484375 32.71875  Q 44.484375 40.625 41.703125 44.40625  Q 38.921875 48.1875 33.109375 48.1875  Q 26.21875 48.1875 22.15625 43.53125  Q 18.109375 38.875 18.109375 30.90625  L 18.109375 0  L 9.078125 0  L 9.078125 54.6875  L 18.109375 54.6875  L 18.109375 46.1875  Q 21.1875 51.21875 25.484375 53.609375  Q 29.78125 56 35.6875 56  Q 41.65625 56 45.828125 52.96875  Q 50 49.953125 52 44.1875  z "
               id="DejaVuSans-6d" />
            <path
               d="M 48.6875 27.296875  Q 48.6875 37.203125 44.609375 42.84375  Q 40.53125 48.484375 33.40625 48.484375  Q 26.265625 48.484375 22.1875 42.84375  Q 18.109375 37.203125 18.109375 27.296875  Q 18.109375 17.390625 22.1875 11.75  Q 26.265625 6.109375 33.40625 6.109375  Q 40.53125 6.109375 44.609375 11.75  Q 48.6875 17.390625 48.6875 27.296875  z M 18.109375 46.390625  Q 20.953125 51.265625 25.265625 53.625  Q 29.59375 56 35.59375 56  Q 45.5625 56 51.78125 48.09375  Q 58.015625 40.1875 58.015625 27.296875  Q 58.015625 14.40625 51.78125 6.484375  Q 45.5625 -1.421875 35.59375 -1.421875  Q 29.59375 -1.421875 25.265625 0.953125  Q 20.953125 3.328125 18.109375 8.203125  L 18.109375 0  L 9.078125 0  L 9.078125 75.984375  L 18.109375 75.984375  z "
               id="DejaVuSans-62" />
            <path
               d="M 41.109375 46.296875  Q 39.59375 47.171875 37.8125 47.578125  Q 36.03125 48 33.890625 48  Q 26.265625 48 22.1875 43.046875  Q 18.109375 38.09375 18.109375 28.8125  L 18.109375 0  L 9.078125 0  L 9.078125 54.6875  L 18.109375 54.6875  L 18.109375 46.1875  Q 20.953125 51.171875 25.484375 53.578125  Q 30.03125 56 36.53125 56  Q 37.453125 56 38.578125 55.875  Q 39.703125 55.765625 41.0625 55.515625  z "
               id="DejaVuSans-72" />
            <path
               d="M 37.109375 75.984375  L 37.109375 68.5  L 28.515625 68.5  Q 23.6875 68.5 21.796875 66.546875  Q 19.921875 64.59375 19.921875 59.515625  L 19.921875 54.6875  L 34.71875 54.6875  L 34.71875 47.703125  L 19.921875 47.703125  L 19.921875 0  L 10.890625 0  L 10.890625 47.703125  L 2.296875 47.703125  L 2.296875 54.6875  L 10.890625 54.6875  L 10.890625 58.5  Q 10.890625 67.625 15.140625 71.796875  Q 19.390625 75.984375 28.609375 75.984375  z "
               id="DejaVuSans-66" />
            <path
               d="M 14.796875 27.296875  Q 14.796875 17.390625 18.875 11.75  Q 22.953125 6.109375 30.078125 6.109375  Q 37.203125 6.109375 41.296875 11.75  Q 45.40625 17.390625 45.40625 27.296875  Q 45.40625 37.203125 41.296875 42.84375  Q 37.203125 48.484375 30.078125 48.484375  Q 22.953125 48.484375 18.875 42.84375  Q 14.796875 37.203125 14.796875 27.296875  z M 45.40625 8.203125  Q 42.578125 3.328125 38.25 0.953125  Q 33.9375 -1.421875 27.875 -1.421875  Q 17.96875 -1.421875 11.734375 6.484375  Q 5.515625 14.40625 5.515625 27.296875  Q 5.515625 40.1875 11.734375 48.09375  Q 17.96875 56 27.875 56  Q 33.9375 56 38.25 53.625  Q 42.578125 51.265625 45.40625 46.390625  L 45.40625 54.6875  L 54.390625 54.6875  L 54.390625 -20.796875  L 45.40625 -20.796875  z "
               id="DejaVuSans-71" />
            <path
               d="M 45.40625 46.390625  L 45.40625 75.984375  L 54.390625 75.984375  L 54.390625 0  L 45.40625 0  L 45.40625 8.203125  Q 42.578125 3.328125 38.25 0.953125  Q 33.9375 -1.421875 27.875 -1.421875  Q 17.96875 -1.421875 11.734375 6.484375  Q 5.515625 14.40625 5.515625 27.296875  Q 5.515625 40.1875 11.734375 48.09375  Q 17.96875 56 27.875 56  Q 33.9375 56 38.25 53.625  Q 42.578125 51.265625 45.40625 46.390625  z M 14.796875 27.296875  Q 14.796875 17.390625 18.875 11.75  Q 22.953125 6.109375 30.078125 6.109375  Q 37.203125 6.109375 41.296875 11.75  Q 45.40625 17.390625 45.40625 27.296875  Q 45.40625 37.203125 41.296875 42.84375  Q 37.203125 48.484375 30.078125 48.484375  Q 22.953125 48.484375 18.875 42.84375  Q 14.796875 37.203125 14.796875 27.296875  z "
               id="DejaVuSans-64" />
            <path
               d="M 9.421875 75.984375  L 18.40625 75.984375  L 18.40625 0  L 9.421875 0  z "
               id="DejaVuSans-6c" />
            <path
               d="M 34.28125 27.484375  Q 23.390625 27.484375 19.1875 25  Q 14.984375 22.515625 14.984375 16.5  Q 14.984375 11.71875 18.140625 8.90625  Q 21.296875 6.109375 26.703125 6.109375  Q 34.1875 6.109375 38.703125 11.40625  Q 43.21875 16.703125 43.21875 25.484375  L 43.21875 27.484375  z M 52.203125 31.203125  L 52.203125 0  L 43.21875 0  L 43.21875 8.296875  Q 40.140625 3.328125 35.546875 0.953125  Q 30.953125 -1.421875 24.3125 -1.421875  Q 15.921875 -1.421875 10.953125 3.296875  Q 6 8.015625 6 15.921875  Q 6 25.140625 12.171875 29.828125  Q 18.359375 34.515625 30.609375 34.515625  L 43.21875 34.515625  L 43.21875 35.40625  Q 43.21875 41.609375 39.140625 45  Q 35.0625 48.390625 27.6875 48.390625  Q 23 48.390625 18.546875 47.265625  Q 14.109375 46.140625 10.015625 43.890625  L 10.015625 52.203125  Q 14.9375 54.109375 19.578125 55.046875  Q 24.21875 56 28.609375 56  Q 40.484375 56 46.34375 49.84375  Q 52.203125 43.703125 52.203125 31.203125  z "
               id="DejaVuSans-61" />
          </defs>
          <g
             transform="translate(28.195312 246.063594)rotate(-90)scale(0.1 -0.1)"
             id="g3337">
            <use
               xlink:href="#DejaVuSans-6e"
               id="use3263" />
            <use
               x="63.378906"
               xlink:href="#DejaVuSans-75"
               id="use3265" />
            <use
               x="126.757812"
               xlink:href="#DejaVuSans-6d"
               id="use3267" />
            <use
               x="224.169922"
               xlink:href="#DejaVuSans-62"
               id="use3269" />
            <use
               x="287.646484"
               xlink:href="#DejaVuSans-65"
               id="use3271" />
            <use
               x="349.169922"
               xlink:href="#DejaVuSans-72"
               id="use3273" />
            <use
               x="390.283203"
               xlink:href="#DejaVuSans-20"
               id="use3275" />
            <use
               x="422.070312"
               xlink:href="#DejaVuSans-6f"
               id="use3277" />
            <use
               x="483.251953"
               xlink:href="#DejaVuSans-66"
               id="use3279" />
            <use
               x="518.457031"
               xlink:href="#DejaVuSans-20"
               id="use3281" />
            <use
               x="550.244141"
               xlink:href="#DejaVuSans-75"
               id="use3283" />
            <use
               x="613.623047"
               xlink:href="#DejaVuSans-6e"
               id="use3285" />
            <use
               x="677.001953"
               xlink:href="#DejaVuSans-69"
               id="use3287" />
            <use
               x="704.785156"
               xlink:href="#DejaVuSans-71"
               id="use3289" />
            <use
               x="768.261719"
               xlink:href="#DejaVuSans-75"
               id="use3291" />
            <use
               x="831.640625"
               xlink:href="#DejaVuSans-65"
               id="use3293" />
            <use
               x="893.164062"
               xlink:href="#DejaVuSans-20"
               id="use3295" />
            <use
               x="924.951172"
               xlink:href="#DejaVuSans-64"
               id="use3297" />
            <use
               x="988.427734"
               xlink:href="#DejaVuSans-6f"
               id="use3299" />
            <use
               x="1049.609375"
               xlink:href="#DejaVuSans-77"
               id="use3301" />
            <use
               x="1131.396484"
               xlink:href="#DejaVuSans-6e"
               id="use3303" />
            <use
               x="1194.775391"
               xlink:href="#DejaVuSans-6c"
               id="use3305" />
            <use
               x="1222.558594"
               xlink:href="#DejaVuSans-6f"
               id="use3307" />
            <use
               x="1283.740234"
               xlink:href="#DejaVuSans-61"
               id="use3309" />
            <use
               x="1345.019531"
               xlink:href="#DejaVuSans-64"
               id="use3311" />
            <use
               x="1408.496094"
               xlink:href="#DejaVuSans-65"
               id="use3313" />
            <use
               x="1470.019531"
               xlink:href="#DejaVuSans-72"
               id="use3315" />
            <use
               x="1511.132812"
               xlink:href="#DejaVuSans-73"
               id="use3317" />
            <use
               x="1563.232422"
               xlink:href="#DejaVuSans-20"
               id="use3319" />
            <use
               x="1595.019531"
               xlink:href="#DejaVuSans-70"
               id="use3321" />
            <use
               x="1658.496094"
               xlink:href="#DejaVuSans-65"
               id="use3323" />
            <use
               x="1720.019531"
               xlink:href="#DejaVuSans-72"
               id="use3325" />
            <use
               x="1761.132812"
               xlink:href="#DejaVuSans-20"
               id="use3327" />
            <use
               x="1792.919922"
               xlink:href="#DejaVuSans-77"
               id="use3329" />
            <use
               x="1874.707031"
               xlink:href="#DejaVuSans-65"
               id="use3331" />
            <use
               x="1936.230469"
               xlink:href="#DejaVuSans-65"
               id="use3333" />
            <use
               x="1997.753906"
               xlink:href="#DejaVuSans-6b"
               id="use3335" />
          </g>
        </g>
      </g>
      <g
         id="patch_60">
        <path
           d="M 54 252  L 54 34.56  "
           style="fill:none;stroke:#000000;stroke-linecap:square;stroke-linejoin:miter;stroke-width:0.8;"
           id="path3341" />
      </g>
      <g
         id="patch_61">
        <path
           d="M 388.8 252  L 388.8 34.56  "
           style="fill:none;stroke:#000000;stroke-linecap:square;stroke-linejoin:miter;stroke-width:0.8;"
           id="path3344" />
      </g>
      <g
         id="patch_62">
        <path
           d="M 54 252  L 388.8 252  "
           style="fill:none;stroke:#000000;stroke-linecap:square;stroke-linejoin:miter;stroke-width:0.8;"
           id="path3347" />
      </g>
      <g
         id="patch_63">
        <path
           d="M 54 34.56  L 388.8 34.56  "
           style="fill:none;stroke:#000000;stroke-linecap:square;stroke-linejoin:miter;stroke-width:0.8;"
           id="path3350" />
      </g>
    </g>
  </g>
  <defs
     id="defs3358">
    <clipPath
       id="pe3b91a0317">
      <rect
         height="217.44"
         width="334.8"
         x="54"
         y="34.56"
         id="rect3355" />
    </clipPath>
  </defs>
</svg>
