<?xml version="1.0" encoding="UTF-8" standalone="no"?>
<!-- Created with Inkscape (http://www.inkscape.org/) -->

<svg
   xmlns:dc="http://purl.org/dc/elements/1.1/"
   xmlns:cc="http://creativecommons.org/ns#"
   xmlns:rdf="http://www.w3.org/1999/02/22-rdf-syntax-ns#"
   xmlns:svg="http://www.w3.org/2000/svg"
   xmlns="http://www.w3.org/2000/svg"
   xmlns:xlink="http://www.w3.org/1999/xlink"
   xmlns:sodipodi="http://sodipodi.sourceforge.net/DTD/sodipodi-0.dtd"
   xmlns:inkscape="http://www.inkscape.org/namespaces/inkscape"
   id="svg2"
   version="1.1"
   inkscape:version="0.92.3 (2405546, 2018-03-11)"
   width="3774.0271"
   height="1440.0029"
   sodipodi:docname="uproot-3.svg"
   inkscape:export-filename="/home/pivarski/talks/jupyter-talks/2018-09-28-uproot3-update/uproot-3.png"
   inkscape:export-xdpi="15.43"
   inkscape:export-ydpi="15.43">
  <metadata
     id="metadata8">
    <rdf:RDF>
      <cc:Work
         rdf:about="">
        <dc:format>image/svg+xml</dc:format>
        <dc:type
           rdf:resource="http://purl.org/dc/dcmitype/StillImage" />
        <dc:title></dc:title>
      </cc:Work>
    </rdf:RDF>
  </metadata>
  <defs
     id="defs6" />
  <sodipodi:namedview
     pagecolor="#ffffff"
     bordercolor="#666666"
     borderopacity="1"
     objecttolerance="10"
     gridtolerance="10"
     guidetolerance="10"
     inkscape:pageopacity="0"
     inkscape:pageshadow="2"
     inkscape:window-width="845"
     inkscape:window-height="987"
     id="namedview4"
     showgrid="false"
     inkscape:zoom="0.098333334"
     inkscape:cx="3145.3188"
     inkscape:cy="715.27312"
     inkscape:window-x="0"
     inkscape:window-y="0"
     inkscape:window-maximized="0"
     inkscape:current-layer="svg2"
     fit-margin-top="20"
     fit-margin-left="20"
     fit-margin-right="20"
     fit-margin-bottom="20"
     inkscape:snap-others="false" />
  <path
     style="color:#000000;display:inline;overflow:visible;visibility:visible;fill:#bcbcbc;fill-opacity:1;stroke:none;stroke-width:10;marker:none;enable-background:accumulate"
     d="m 31.597308,490.08764 c 2.92693,180.35888 -78.37228,492.8901 151.908112,514.15046 81.55766,7.5297 144.42121,-18.78366 192.35701,-72.80796 l 17.07843,61.1228 h 83.5944 V 490.08764 H 365.97492 v 364.04014 c -30.54763,43.76726 -74.31652,63.85896 -131.23422,63.81936 -65.18398,-0.045 -81.70564,-36.7944 -92.58305,-79.99892 V 490.08764 Z"
     id="path3845"
     inkscape:connector-curvature="0"
     sodipodi:nodetypes="csccccccsccc" />
  <path
     id="path3866"
     style="color:#000000;display:inline;overflow:visible;visibility:visible;fill:#bcbcbc;fill-opacity:1;fill-rule:nonzero;stroke:none;stroke-width:10;marker:none;enable-background:accumulate"
     d="m 728.21625,921.54264 c 115.8144,10.8792 161.8581,-88.58568 160.8968,-186.06498 -0.916,-92.892 -26.6129,-166.35123 -124.9422,-167.18881 -52.5777,-0.44786 -94.89457,23.57829 -123.39727,62.92052 v 257.07527 c 21.7808,16.0738 48.92347,29.6396 87.44267,33.258 z M 635.57048,546.99886 c 34.2558,-35.05963 79.17147,-66.70318 147.33817,-66.10169 139.59315,1.23175 224.59785,94.4136 222.45755,255.50847 -1.9308,145.3317 -80.1695,268.29286 -252.96605,270.76266 -44.4837,0.6358 -84.37537,-14.23386 -111.74487,-35.59316 V 1420.003 l -106.8992,-37.5804 V 485.98191 h 85.16947 z"
     inkscape:connector-curvature="0"
     sodipodi:nodetypes="sssccscssscccccc" />
  <path
     style="color:#000000;display:inline;overflow:visible;visibility:visible;fill:#bcbcbc;fill-opacity:1;fill-rule:nonzero;stroke:none;stroke-width:10;marker:none;enable-background:accumulate"
     d="m 1143.2868,570.57044 c 74.6335,-137.89439 198.1574,-113.89974 244.2417,-88.22416 l -22.2881,90.08153 C 1285.7587,541.69805 1168.8893,561.26305 1147.443,690.36962 V 994.04657 H 1041.1325 V 472.13083 h 87.2957 z"
     id="path3914"
     inkscape:connector-curvature="0"
     sodipodi:nodetypes="ccccccccc" />
  <path
     id="path3930"
     style="color:#000000;display:inline;overflow:visible;visibility:visible;fill:#bcbcbc;fill-opacity:1;fill-rule:nonzero;stroke:none;stroke-width:10;marker:none;enable-background:accumulate"
     d="m 1578.3331,571.82893 c -78.3251,2.43522 -123.4518,69.41766 -119.9775,180.76124 2.6377,84.53126 30.776,168.06716 125.7298,171.01427 84.7543,2.63064 126.0946,-70.8012 125.7298,-179.87512 -0.3114,-93.12211 -37.9105,-174.80965 -131.4821,-171.90039 z m 7.3958,-83.29194 c 120.1685,2.4022 225.6036,66.79309 227.6286,255.19234 1.5086,140.35776 -85.9615,260.30477 -223.5198,260.50877 -151.6334,0.225 -233.4218,-91.92137 -235.8461,-255.19227 -2.2265,-149.94377 93.4221,-263.2738 231.7373,-260.50884 z"
     inkscape:connector-curvature="0"
     sodipodi:nodetypes="ssssssssss" />
  <path
     sodipodi:nodetypes="ssssssssss"
     inkscape:connector-curvature="0"
     d="m 2069.5968,571.82893 c -78.3251,2.43522 -123.4518,69.41766 -119.9776,180.76124 2.6379,84.53126 30.776,168.06716 125.73,171.01427 84.7542,2.63064 126.0945,-70.8012 125.7299,-179.87512 -0.3114,-93.12211 -37.9105,-174.80965 -131.4823,-171.90039 z m 7.3959,-83.29194 c 120.1684,2.4022 225.6037,66.79309 227.6286,255.19234 1.5085,140.35776 -85.9615,260.30477 -223.5198,260.50877 -151.6334,0.225 -233.4217,-91.92137 -235.8463,-255.19227 -2.2265,-149.94377 93.4223,-263.2738 231.7375,-260.50884 z"
     style="color:#000000;display:inline;overflow:visible;visibility:visible;fill:#bcbcbc;fill-opacity:1;fill-rule:nonzero;stroke:none;stroke-width:10;marker:none;enable-background:accumulate"
     id="path3939" />
  <path
     style="color:#000000;display:inline;overflow:visible;visibility:visible;fill:#bcbcbc;fill-opacity:1;fill-rule:nonzero;stroke:none;stroke-width:10;marker:none;enable-background:accumulate"
     d="m 2630.5548,886.7894 c -86.1966,25.10182 -138.4125,18.3854 -147.0591,-29.1273 V 553.23478 H 2623.552 V 465.85289 H 2482.8173 V 237.34041 l -106.9901,-37.63109 v 266.355 h -74.2079 v 87.17046 h 73.814 v 326.03781 c 12.0324,62.77765 39.1919,116.17533 147.5129,115.36166 48.694,-0.36586 91.2721,-8.3355 125.1157,-25.16098 z"
     id="path3941"
     inkscape:connector-curvature="0"
     sodipodi:nodetypes="cccccccccccccscc" />
  <path
     id="path3957"
     style="color:#000000;display:inline;overflow:visible;visibility:visible;fill:#bcbcbc;fill-opacity:1;fill-rule:nonzero;stroke:none;stroke-width:10;marker:none;enable-background:accumulate"
     d="m 263.92979,240.71495 c -30.36396,0 -48.97882,-18.61485 -48.97882,-48.97881 0,-30.36396 18.61486,-48.97882 48.97882,-48.97882 30.36396,0 48.97881,18.61486 48.97881,48.97882 0,30.36396 -18.61485,48.97881 -48.97881,48.97881 z m 36.78767,209.84483 c 48.44671,-6.0243 86.09172,-6.04244 134.47004,-4.49433 19.58559,-0.48905 32.31188,-10.45258 33.25798,-26.96593 2.23883,-39.077 -24.3447,-64.50699 -68.76313,-71.45973 -33.22531,-5.2007 -62.39384,26.89938 -99.41432,57.97676 V 339.55 c 28.46404,19.63398 52.71158,12.65166 77.39213,-13.48296 24.68055,-26.13462 22.40415,-62.24395 -1.79773,-95.27965 50.57188,-19.24077 65.08321,-60.16878 48.98812,-98.42567 C 408.75546,94.104826 366.8653,80.553746 331.81807,101.3509 329.17069,56.767816 306.56946,19.575736 260.35834,20.003656 c -46.21112,0.42792 -75.50462,38.80099 -67.41484,80.897814 -50.70678,-17.941834 -90.84685,4.36282 -100.672832,44.94322 -9.82598,40.5804 9.584902,76.44032 60.223922,86.74043 -25.27637,22.75268 -30.40438,63.49966 -5.84262,95.27965 24.56176,31.77999 52.918,21.24085 76.89781,17.52785 v 59.7745 c -42.20228,-37.80741 -70.94087,-57.79249 -98.91999,-56.17904 -40.270342,2.32225 -75.409902,24.19301 -71.010302,75.05519 1.41075,16.3092 15.39697,23.4834 28.76367,22.47162 50.614312,-5.64208 91.222332,-1.5712 141.166622,3.59545 v 106.92105 l 77.16768,27.03284 z"
     inkscape:connector-curvature="0"
     sodipodi:nodetypes="sssssccssccscscscscsccssccccc" />
  <path
     style="opacity:1;vector-effect:none;fill:#bcbcbc;fill-opacity:0.42439025;stroke:none;stroke-width:10;stroke-linecap:butt;stroke-linejoin:miter;stroke-miterlimit:4;stroke-dasharray:none;stroke-dashoffset:0;stroke-opacity:1;marker:none"
     d="m 3580.339,492.37591 c -2.6384,78.63584 -30.9353,128.70385 -91.5255,172.88136 66.8336,32.05781 80.6584,111.28408 77.5424,207.20338 39.4248,-1.80608 39.2276,-51.99778 48.3051,-102.9661 6.9292,-38.90634 38.8169,-56.79875 66.1017,-55.9322 27.2848,0.86654 62.7826,19.68668 68.644,61.01695 32.0782,226.1916 -109.4076,208.47945 -222.4576,217.37285 -52.2471,45.28445 -98.8997,65.95915 -191.9491,66.10175 -259.4281,0.3975 -351.0026,-142.98579 -348.3051,-291.10172 l 305.0848,106.77966 34.1861,-434.12133 c -130.3519,4.58348 -163.011,43.83058 -160.3356,144.29082 H 2989.2373 V 362.71489 l 162.3131,-69.19253 c 84.8416,-28.89891 174.7104,-60.3193 253.3648,-42.67187 21.5024,4.72823 57.7988,-60.44356 132.2034,-49.57627 -1.5279,79.39699 -17.0535,91.05523 -31.7796,108.05084 38.8996,31.48034 77.6384,104.41501 75,183.05085 z"
     id="path1455"
     inkscape:connector-curvature="0"
     sodipodi:nodetypes="zccszscsccccccccccz" />
  <path
     style="opacity:1;vector-effect:none;fill:#bcbcbc;fill-opacity:1;stroke:none;stroke-width:10;stroke-linecap:butt;stroke-linejoin:miter;stroke-miterlimit:4;stroke-dasharray:none;stroke-dashoffset:0;stroke-opacity:1;marker:none"
     d="M 3209.7457,678.56235 V 532.37591 c 57.9717,-1.48097 78.6378,-1.53559 80.0847,-47.0339 1.447,-45.49832 -21.8174,-71.86717 -77.5423,-71.18643 -55.7249,0.68074 -111.5712,16.15819 -114.4067,114.40677 h -191.9492 c -1.7955,-198.28048 66.9827,-296.96911 302.5423,-298.72881 235.5596,-1.7597 282.9947,129.83582 282.2035,219.91525 -0.7913,90.07944 -21.2395,123.78176 -59.7458,146.18644"
     id="path1453"
     inkscape:connector-curvature="0"
     sodipodi:nodetypes="cczzcczzc" />
  <use
     x="0"
     y="0"
     xlink:href="#path1453"
     id="use1478"
     transform="matrix(1,0,0,-1,0,1210.9384)"
     width="100%"
     height="100%" />
</svg>
